<?xml version="1.0" encoding="iso-8859-1"?>
<!-- Generator: Adobe Illustrator 19.0.0, SVG Export Plug-In . SVG Version: 6.00 Build 0)  -->
<svg version="1.1" id="Capa_1" xmlns="http://www.w3.org/2000/svg" xmlns:xlink="http://www.w3.org/1999/xlink" x="0px" y="0px"
	 viewBox="0 0 512 512" style="enable-background:new 0 0 512 512;" xml:space="preserve">
<circle style="fill:#2F001E;" cx="256" cy="256" r="256"/>
<g>
	<path style="fill:#FF1AC4;" d="M281.728,373.142l-85.859-132.503l82.39-132.023c3.469-5.454,4.963-10.418,4.963-15.381
		c0-20.846-28.296-36.728-50.134-36.728c-10.919,0-18.359,3.971-23.322,12.904L143.76,184.549L78.809,71.24l-1.055-1.829
		c-4.963-8.934-12.413-12.904-23.333-12.904c-21.838,0-50.124,15.882-50.124,36.728c0,4.963,1.494,9.927,4.963,15.381l18.975,30.396
		L91.65,240.639L18.958,352.83c10.658,26.081,25.496,50.009,43.687,70.949c3.678-1.285,6.708-3.406,8.652-6.457l72.464-123.089
		l72.453,123.089c2.978,5.454,10.428,7.941,18.369,7.941c21.337,0,51.618-16.875,51.618-38.222
		C286.201,382.578,284.706,378.106,281.728,373.142z"/>
	<path style="fill:#FF1AC4;" d="M472.955,51.053c-20.532,0-37.125,8.338-39.027,20.898c-0.115,0.794-0.178,1.599-0.178,2.424
		v146.411c-10.418-19.362-32.758-37.721-63.028-37.721c-48.64,0-87.845,47.146-87.845,104.218v34.743
		c0,55.087,40.197,105.221,86.35,105.221c31.765,0,59.559-19.362,69.486-39.706v10.919c0,7.534,6.165,15.078,15.464,19.592
		c30.939-37.773,51.273-84.543,56.498-135.785V74.375C510.676,60.478,494.794,51.053,472.955,51.053z M433.751,328.483
		c0,8.432-16.875,31.754-38.212,31.754c-19.853,0-35.736-18.85-35.736-38.212v-34.743c0-18.86,15.882-37.219,36.227-37.219
		c17.868,0,37.721,13.897,37.721,37.219V328.483z"/>
</g>
<g>
</g>
<g>
</g>
<g>
</g>
<g>
</g>
<g>
</g>
<g>
</g>
<g>
</g>
<g>
</g>
<g>
</g>
<g>
</g>
<g>
</g>
<g>
</g>
<g>
</g>
<g>
</g>
<g>
</g>
</svg>
