<?xml version="1.0" encoding="iso-8859-1"?>
<!-- Generator: Adobe Illustrator 19.0.0, SVG Export Plug-In . SVG Version: 6.00 Build 0)  -->
<svg version="1.1" id="Capa_1" xmlns="http://www.w3.org/2000/svg" xmlns:xlink="http://www.w3.org/1999/xlink" x="0px" y="0px"
	 viewBox="0 0 512.001 512.001" style="enable-background:new 0 0 512.001 512.001;" xml:space="preserve">
<circle style="fill:#150020;" cx="254.88" cy="256.001" r="254.88"/>
<g>
	<path style="fill:#FF79FF;" d="M176.796,54.611H60.509c-19.662,0-32.583,12.359-32.583,26.403v291.104
		c17.53,34.185,42.549,63.886,72.906,86.951c8.791-4.473,14.731-11.402,14.731-20.765V316.961h55.616
		c77.525,0,138.197-35.954,138.197-130.332v-2.809C309.376,89.441,250.951,54.611,176.796,54.611z M221.738,193.37
		c0,38.201-19.1,56.178-50.56,56.178h-55.616V131.013h55.616c31.459,0,50.56,17.977,50.56,56.178V193.37z"/>
	<path style="fill:#FF79FF;" d="M505.571,209.755c-5.774-9.165-14.825-15.262-24.468-15.262h-16.292
		c-28.651,0-55.616,25.842-66.851,50.56v-20.786c0-15.73-17.415-26.404-38.763-26.404c-24.718,0-42.695,10.674-42.695,26.404
		v214.037c0,13.483,17.977,26.965,42.695,26.965s44.38-13.483,44.38-26.965v-84.266c0-51.122,30.336-83.705,61.234-83.705h16.292
		c12.328,0,23.688-9.966,28.484-23.823c1.55-4.463,2.414-9.321,2.414-14.377C512,223.873,509.566,216.08,505.571,209.755z"/>
</g>
<g>
</g>
<g>
</g>
<g>
</g>
<g>
</g>
<g>
</g>
<g>
</g>
<g>
</g>
<g>
</g>
<g>
</g>
<g>
</g>
<g>
</g>
<g>
</g>
<g>
</g>
<g>
</g>
<g>
</g>
</svg>
